<mxfile host="app.diagrams.net" modified="2022-09-08T14:01:29.637Z" agent="5.0 (Windows NT 10.0; Win64; x64) AppleWebKit/537.36 (KHTML, like Gecko) Chrome/105.0.0.0 Safari/537.36" etag="OMrrKYKI_2qao2Db9CWE" version="20.0.1" type="github">
  <diagram id="hLaInJG9-qHOR2pv9sTE" name="Page-1">
    <mxGraphModel dx="1422" dy="832" grid="1" gridSize="10" guides="1" tooltips="1" connect="1" arrows="1" fold="1" page="1" pageScale="1" pageWidth="827" pageHeight="1169" math="0" shadow="0">
      <root>
        <mxCell id="0" />
        <mxCell id="1" parent="0" />
        <mxCell id="KTfaZPqxmfwgzUWXzRLm-1" value="&lt;span style=&quot;white-space: pre;&quot;&gt;	&lt;/span&gt;&lt;span style=&quot;white-space: pre;&quot;&gt;	&lt;/span&gt;&lt;font style=&quot;font-size: 20px;&quot;&gt;client&lt;/font&gt;" style="rounded=1;whiteSpace=wrap;html=1;" vertex="1" parent="1">
          <mxGeometry x="40" y="250" width="150" height="150" as="geometry" />
        </mxCell>
        <mxCell id="KTfaZPqxmfwgzUWXzRLm-2" value="" style="shape=actor;whiteSpace=wrap;html=1;" vertex="1" parent="1">
          <mxGeometry x="60" y="295" width="40" height="60" as="geometry" />
        </mxCell>
        <mxCell id="KTfaZPqxmfwgzUWXzRLm-3" value="Fire&lt;br&gt;Base" style="shape=datastore;whiteSpace=wrap;html=1;fontSize=20;" vertex="1" parent="1">
          <mxGeometry x="640" y="286" width="100" height="100" as="geometry" />
        </mxCell>
        <mxCell id="KTfaZPqxmfwgzUWXzRLm-4" value="" style="shape=link;html=1;rounded=0;fontSize=20;exitX=1;exitY=0.5;exitDx=0;exitDy=0;width=11;entryX=0;entryY=0.7;entryDx=0;entryDy=0;" edge="1" parent="1" source="KTfaZPqxmfwgzUWXzRLm-26" target="KTfaZPqxmfwgzUWXzRLm-3">
          <mxGeometry width="100" relative="1" as="geometry">
            <mxPoint x="570" y="330" as="sourcePoint" />
            <mxPoint x="640" y="250" as="targetPoint" />
          </mxGeometry>
        </mxCell>
        <mxCell id="KTfaZPqxmfwgzUWXzRLm-5" value="/action" style="rounded=1;whiteSpace=wrap;html=1;fontSize=20;" vertex="1" parent="1">
          <mxGeometry x="310" y="170" width="110" height="110" as="geometry" />
        </mxCell>
        <mxCell id="KTfaZPqxmfwgzUWXzRLm-7" value="" style="shape=link;html=1;rounded=0;fontSize=20;exitX=1;exitY=0.25;exitDx=0;exitDy=0;entryX=0;entryY=0.5;entryDx=0;entryDy=0;width=10;" edge="1" parent="1" source="KTfaZPqxmfwgzUWXzRLm-1" target="KTfaZPqxmfwgzUWXzRLm-5">
          <mxGeometry x="0.1273" y="81" width="100" relative="1" as="geometry">
            <mxPoint x="200" y="340" as="sourcePoint" />
            <mxPoint x="440" y="353.33333333333326" as="targetPoint" />
            <mxPoint y="-1" as="offset" />
          </mxGeometry>
        </mxCell>
        <mxCell id="KTfaZPqxmfwgzUWXzRLm-8" value="{user info}" style="text;html=1;strokeColor=none;fillColor=none;align=center;verticalAlign=middle;whiteSpace=wrap;rounded=0;fontSize=20;rotation=-30;" vertex="1" parent="1">
          <mxGeometry x="190.66" y="220.95" width="109.28" height="30" as="geometry" />
        </mxCell>
        <mxCell id="KTfaZPqxmfwgzUWXzRLm-13" value="&quot;OK!&quot;" style="text;html=1;strokeColor=none;fillColor=none;align=center;verticalAlign=middle;whiteSpace=wrap;rounded=0;fontSize=20;rotation=-30;" vertex="1" parent="1">
          <mxGeometry x="230" y="256" width="60" height="30" as="geometry" />
        </mxCell>
        <mxCell id="KTfaZPqxmfwgzUWXzRLm-16" value="" style="shape=flexArrow;endArrow=classic;html=1;rounded=0;fontSize=20;exitX=0;exitY=0.909;exitDx=0;exitDy=0;exitPerimeter=0;" edge="1" parent="1" source="KTfaZPqxmfwgzUWXzRLm-5">
          <mxGeometry width="50" height="50" relative="1" as="geometry">
            <mxPoint x="295" y="270" as="sourcePoint" />
            <mxPoint x="225" y="320" as="targetPoint" />
            <Array as="points">
              <mxPoint x="290" y="310" />
            </Array>
          </mxGeometry>
        </mxCell>
        <mxCell id="KTfaZPqxmfwgzUWXzRLm-18" value="" style="shape=flexArrow;endArrow=classic;html=1;rounded=0;fontSize=20;" edge="1" parent="1">
          <mxGeometry width="50" height="50" relative="1" as="geometry">
            <mxPoint x="200" y="240" as="sourcePoint" />
            <mxPoint x="280" y="200" as="targetPoint" />
            <Array as="points">
              <mxPoint x="220" y="200" />
            </Array>
          </mxGeometry>
        </mxCell>
        <mxCell id="KTfaZPqxmfwgzUWXzRLm-22" value="fetch()" style="text;html=1;strokeColor=none;fillColor=none;align=center;verticalAlign=middle;whiteSpace=wrap;rounded=0;fontSize=20;rotation=20;" vertex="1" parent="1">
          <mxGeometry x="480" y="280" width="60" height="30" as="geometry" />
        </mxCell>
        <mxCell id="KTfaZPqxmfwgzUWXzRLm-25" value="{user info} update" style="text;html=1;strokeColor=none;fillColor=none;align=center;verticalAlign=middle;whiteSpace=wrap;rounded=0;fontSize=20;rotation=20;" vertex="1" parent="1">
          <mxGeometry x="460" y="226" width="169.96" height="30" as="geometry" />
        </mxCell>
        <mxCell id="KTfaZPqxmfwgzUWXzRLm-26" value="/scoreboard" style="rounded=1;whiteSpace=wrap;html=1;fontSize=20;" vertex="1" parent="1">
          <mxGeometry x="310" y="420" width="110" height="110" as="geometry" />
        </mxCell>
        <mxCell id="KTfaZPqxmfwgzUWXzRLm-27" value="" style="shape=link;html=1;rounded=0;fontSize=20;exitX=1;exitY=0.75;exitDx=0;exitDy=0;width=10;entryX=0;entryY=0.5;entryDx=0;entryDy=0;" edge="1" parent="1" source="KTfaZPqxmfwgzUWXzRLm-1" target="KTfaZPqxmfwgzUWXzRLm-26">
          <mxGeometry x="0.1273" y="81" width="100" relative="1" as="geometry">
            <mxPoint x="200" y="297.5" as="sourcePoint" />
            <mxPoint x="320" y="410" as="targetPoint" />
            <mxPoint y="-1" as="offset" />
          </mxGeometry>
        </mxCell>
        <mxCell id="KTfaZPqxmfwgzUWXzRLm-28" value="" style="shape=link;html=1;rounded=0;fontSize=20;exitX=1;exitY=0.5;exitDx=0;exitDy=0;width=11;entryX=0.02;entryY=0.37;entryDx=0;entryDy=0;entryPerimeter=0;" edge="1" parent="1" target="KTfaZPqxmfwgzUWXzRLm-3">
          <mxGeometry width="100" relative="1" as="geometry">
            <mxPoint x="430" y="235" as="sourcePoint" />
            <mxPoint x="650" y="325.44444444444434" as="targetPoint" />
          </mxGeometry>
        </mxCell>
      </root>
    </mxGraphModel>
  </diagram>
</mxfile>
